<?xml version="1.0" encoding="utf-8" standalone="no"?>
<!DOCTYPE svg PUBLIC "-//W3C//DTD SVG 1.1//EN"
  "http://www.w3.org/Graphics/SVG/1.1/DTD/svg11.dtd">
<svg xmlns:xlink="http://www.w3.org/1999/xlink" width="1152pt" height="648pt" viewBox="0 0 1152 648" xmlns="http://www.w3.org/2000/svg" version="1.1">
 <metadata>
  <rdf:RDF xmlns:dc="http://purl.org/dc/elements/1.1/" xmlns:cc="http://creativecommons.org/ns#" xmlns:rdf="http://www.w3.org/1999/02/22-rdf-syntax-ns#">
   <cc:Work>
    <dc:type rdf:resource="http://purl.org/dc/dcmitype/StillImage"/>
    <dc:date>2025-08-08T23:08:03.493166</dc:date>
    <dc:format>image/svg+xml</dc:format>
    <dc:creator>
     <cc:Agent>
      <dc:title>Matplotlib v3.10.5, https://matplotlib.org/</dc:title>
     </cc:Agent>
    </dc:creator>
   </cc:Work>
  </rdf:RDF>
 </metadata>
 <defs>
  <style type="text/css">*{stroke-linejoin: round; stroke-linecap: butt}</style>
 </defs>
 <g id="figure_1">
  <g id="patch_1">
   <path d="M 0 648 
L 1152 648 
L 1152 0 
L 0 0 
z
" style="fill: #ffffff"/>
  </g>
  <g id="axes_1">
   <g id="patch_2">
    <path d="M 50.87 606.04 
L 1128.555 606.04 
L 1128.555 26.88 
L 50.87 26.88 
z
" style="fill: #ffffff"/>
   </g>
   <g id="matplotlib.axis_1">
    <g id="xtick_1">
     <g id="line2d_1">
      <path d="M 50.87 606.04 
L 50.87 26.88 
" clip-path="url(#p4d5a346cf1)" style="fill: none; stroke: #b0b0b0; stroke-width: 0.8; stroke-linecap: square"/>
     </g>
     <g id="line2d_2">
      <defs>
       <path id="maf0f797999" d="M 0 0 
L 0 3.5 
" style="stroke: #000000; stroke-width: 0.8"/>
      </defs>
      <g>
       <use xlink:href="#maf0f797999" x="50.87" y="606.04" style="stroke: #000000; stroke-width: 0.8"/>
      </g>
     </g>
     <g id="text_1">
      <!-- 0 -->
      <g transform="translate(47.68875 620.638438) scale(0.1 -0.1)">
       <defs>
        <path id="DejaVuSans-30" d="M 2034 4250 
Q 1547 4250 1301 3770 
Q 1056 3291 1056 2328 
Q 1056 1369 1301 889 
Q 1547 409 2034 409 
Q 2525 409 2770 889 
Q 3016 1369 3016 2328 
Q 3016 3291 2770 3770 
Q 2525 4250 2034 4250 
z
M 2034 4750 
Q 2819 4750 3233 4129 
Q 3647 3509 3647 2328 
Q 3647 1150 3233 529 
Q 2819 -91 2034 -91 
Q 1250 -91 836 529 
Q 422 1150 422 2328 
Q 422 3509 836 4129 
Q 1250 4750 2034 4750 
z
" transform="scale(0.015625)"/>
       </defs>
       <use xlink:href="#DejaVuSans-30"/>
      </g>
     </g>
    </g>
    <g id="xtick_2">
     <g id="line2d_3">
      <path d="M 266.407 606.04 
L 266.407 26.88 
" clip-path="url(#p4d5a346cf1)" style="fill: none; stroke: #b0b0b0; stroke-width: 0.8; stroke-linecap: square"/>
     </g>
     <g id="line2d_4">
      <g>
       <use xlink:href="#maf0f797999" x="266.407" y="606.04" style="stroke: #000000; stroke-width: 0.8"/>
      </g>
     </g>
     <g id="text_2">
      <!-- 200 -->
      <g transform="translate(256.86325 620.638438) scale(0.1 -0.1)">
       <defs>
        <path id="DejaVuSans-32" d="M 1228 531 
L 3431 531 
L 3431 0 
L 469 0 
L 469 531 
Q 828 903 1448 1529 
Q 2069 2156 2228 2338 
Q 2531 2678 2651 2914 
Q 2772 3150 2772 3378 
Q 2772 3750 2511 3984 
Q 2250 4219 1831 4219 
Q 1534 4219 1204 4116 
Q 875 4013 500 3803 
L 500 4441 
Q 881 4594 1212 4672 
Q 1544 4750 1819 4750 
Q 2544 4750 2975 4387 
Q 3406 4025 3406 3419 
Q 3406 3131 3298 2873 
Q 3191 2616 2906 2266 
Q 2828 2175 2409 1742 
Q 1991 1309 1228 531 
z
" transform="scale(0.015625)"/>
       </defs>
       <use xlink:href="#DejaVuSans-32"/>
       <use xlink:href="#DejaVuSans-30" transform="translate(63.623047 0)"/>
       <use xlink:href="#DejaVuSans-30" transform="translate(127.246094 0)"/>
      </g>
     </g>
    </g>
    <g id="xtick_3">
     <g id="line2d_5">
      <path d="M 481.944 606.04 
L 481.944 26.88 
" clip-path="url(#p4d5a346cf1)" style="fill: none; stroke: #b0b0b0; stroke-width: 0.8; stroke-linecap: square"/>
     </g>
     <g id="line2d_6">
      <g>
       <use xlink:href="#maf0f797999" x="481.944" y="606.04" style="stroke: #000000; stroke-width: 0.8"/>
      </g>
     </g>
     <g id="text_3">
      <!-- 400 -->
      <g transform="translate(472.40025 620.638438) scale(0.1 -0.1)">
       <defs>
        <path id="DejaVuSans-34" d="M 2419 4116 
L 825 1625 
L 2419 1625 
L 2419 4116 
z
M 2253 4666 
L 3047 4666 
L 3047 1625 
L 3713 1625 
L 3713 1100 
L 3047 1100 
L 3047 0 
L 2419 0 
L 2419 1100 
L 313 1100 
L 313 1709 
L 2253 4666 
z
" transform="scale(0.015625)"/>
       </defs>
       <use xlink:href="#DejaVuSans-34"/>
       <use xlink:href="#DejaVuSans-30" transform="translate(63.623047 0)"/>
       <use xlink:href="#DejaVuSans-30" transform="translate(127.246094 0)"/>
      </g>
     </g>
    </g>
    <g id="xtick_4">
     <g id="line2d_7">
      <path d="M 697.481 606.04 
L 697.481 26.88 
" clip-path="url(#p4d5a346cf1)" style="fill: none; stroke: #b0b0b0; stroke-width: 0.8; stroke-linecap: square"/>
     </g>
     <g id="line2d_8">
      <g>
       <use xlink:href="#maf0f797999" x="697.481" y="606.04" style="stroke: #000000; stroke-width: 0.8"/>
      </g>
     </g>
     <g id="text_4">
      <!-- 600 -->
      <g transform="translate(687.93725 620.638438) scale(0.1 -0.1)">
       <defs>
        <path id="DejaVuSans-36" d="M 2113 2584 
Q 1688 2584 1439 2293 
Q 1191 2003 1191 1497 
Q 1191 994 1439 701 
Q 1688 409 2113 409 
Q 2538 409 2786 701 
Q 3034 994 3034 1497 
Q 3034 2003 2786 2293 
Q 2538 2584 2113 2584 
z
M 3366 4563 
L 3366 3988 
Q 3128 4100 2886 4159 
Q 2644 4219 2406 4219 
Q 1781 4219 1451 3797 
Q 1122 3375 1075 2522 
Q 1259 2794 1537 2939 
Q 1816 3084 2150 3084 
Q 2853 3084 3261 2657 
Q 3669 2231 3669 1497 
Q 3669 778 3244 343 
Q 2819 -91 2113 -91 
Q 1303 -91 875 529 
Q 447 1150 447 2328 
Q 447 3434 972 4092 
Q 1497 4750 2381 4750 
Q 2619 4750 2861 4703 
Q 3103 4656 3366 4563 
z
" transform="scale(0.015625)"/>
       </defs>
       <use xlink:href="#DejaVuSans-36"/>
       <use xlink:href="#DejaVuSans-30" transform="translate(63.623047 0)"/>
       <use xlink:href="#DejaVuSans-30" transform="translate(127.246094 0)"/>
      </g>
     </g>
    </g>
    <g id="xtick_5">
     <g id="line2d_9">
      <path d="M 913.018 606.04 
L 913.018 26.88 
" clip-path="url(#p4d5a346cf1)" style="fill: none; stroke: #b0b0b0; stroke-width: 0.8; stroke-linecap: square"/>
     </g>
     <g id="line2d_10">
      <g>
       <use xlink:href="#maf0f797999" x="913.018" y="606.04" style="stroke: #000000; stroke-width: 0.8"/>
      </g>
     </g>
     <g id="text_5">
      <!-- 800 -->
      <g transform="translate(903.47425 620.638438) scale(0.1 -0.1)">
       <defs>
        <path id="DejaVuSans-38" d="M 2034 2216 
Q 1584 2216 1326 1975 
Q 1069 1734 1069 1313 
Q 1069 891 1326 650 
Q 1584 409 2034 409 
Q 2484 409 2743 651 
Q 3003 894 3003 1313 
Q 3003 1734 2745 1975 
Q 2488 2216 2034 2216 
z
M 1403 2484 
Q 997 2584 770 2862 
Q 544 3141 544 3541 
Q 544 4100 942 4425 
Q 1341 4750 2034 4750 
Q 2731 4750 3128 4425 
Q 3525 4100 3525 3541 
Q 3525 3141 3298 2862 
Q 3072 2584 2669 2484 
Q 3125 2378 3379 2068 
Q 3634 1759 3634 1313 
Q 3634 634 3220 271 
Q 2806 -91 2034 -91 
Q 1263 -91 848 271 
Q 434 634 434 1313 
Q 434 1759 690 2068 
Q 947 2378 1403 2484 
z
M 1172 3481 
Q 1172 3119 1398 2916 
Q 1625 2713 2034 2713 
Q 2441 2713 2670 2916 
Q 2900 3119 2900 3481 
Q 2900 3844 2670 4047 
Q 2441 4250 2034 4250 
Q 1625 4250 1398 4047 
Q 1172 3844 1172 3481 
z
" transform="scale(0.015625)"/>
       </defs>
       <use xlink:href="#DejaVuSans-38"/>
       <use xlink:href="#DejaVuSans-30" transform="translate(63.623047 0)"/>
       <use xlink:href="#DejaVuSans-30" transform="translate(127.246094 0)"/>
      </g>
     </g>
    </g>
    <g id="xtick_6">
     <g id="line2d_11">
      <path d="M 1128.555 606.04 
L 1128.555 26.88 
" clip-path="url(#p4d5a346cf1)" style="fill: none; stroke: #b0b0b0; stroke-width: 0.8; stroke-linecap: square"/>
     </g>
     <g id="line2d_12">
      <g>
       <use xlink:href="#maf0f797999" x="1128.555" y="606.04" style="stroke: #000000; stroke-width: 0.8"/>
      </g>
     </g>
     <g id="text_6">
      <!-- 1000 -->
      <g transform="translate(1115.83 620.638438) scale(0.1 -0.1)">
       <defs>
        <path id="DejaVuSans-31" d="M 794 531 
L 1825 531 
L 1825 4091 
L 703 3866 
L 703 4441 
L 1819 4666 
L 2450 4666 
L 2450 531 
L 3481 531 
L 3481 0 
L 794 0 
L 794 531 
z
" transform="scale(0.015625)"/>
       </defs>
       <use xlink:href="#DejaVuSans-31"/>
       <use xlink:href="#DejaVuSans-30" transform="translate(63.623047 0)"/>
       <use xlink:href="#DejaVuSans-30" transform="translate(127.246094 0)"/>
       <use xlink:href="#DejaVuSans-30" transform="translate(190.869141 0)"/>
      </g>
     </g>
    </g>
    <g id="text_7">
     <!-- Iteration -->
     <g transform="translate(568.503906 634.316563) scale(0.1 -0.1)">
      <defs>
       <path id="DejaVuSans-49" d="M 628 4666 
L 1259 4666 
L 1259 0 
L 628 0 
L 628 4666 
z
" transform="scale(0.015625)"/>
       <path id="DejaVuSans-74" d="M 1172 4494 
L 1172 3500 
L 2356 3500 
L 2356 3053 
L 1172 3053 
L 1172 1153 
Q 1172 725 1289 603 
Q 1406 481 1766 481 
L 2356 481 
L 2356 0 
L 1766 0 
Q 1100 0 847 248 
Q 594 497 594 1153 
L 594 3053 
L 172 3053 
L 172 3500 
L 594 3500 
L 594 4494 
L 1172 4494 
z
" transform="scale(0.015625)"/>
       <path id="DejaVuSans-65" d="M 3597 1894 
L 3597 1613 
L 953 1613 
Q 991 1019 1311 708 
Q 1631 397 2203 397 
Q 2534 397 2845 478 
Q 3156 559 3463 722 
L 3463 178 
Q 3153 47 2828 -22 
Q 2503 -91 2169 -91 
Q 1331 -91 842 396 
Q 353 884 353 1716 
Q 353 2575 817 3079 
Q 1281 3584 2069 3584 
Q 2775 3584 3186 3129 
Q 3597 2675 3597 1894 
z
M 3022 2063 
Q 3016 2534 2758 2815 
Q 2500 3097 2075 3097 
Q 1594 3097 1305 2825 
Q 1016 2553 972 2059 
L 3022 2063 
z
" transform="scale(0.015625)"/>
       <path id="DejaVuSans-72" d="M 2631 2963 
Q 2534 3019 2420 3045 
Q 2306 3072 2169 3072 
Q 1681 3072 1420 2755 
Q 1159 2438 1159 1844 
L 1159 0 
L 581 0 
L 581 3500 
L 1159 3500 
L 1159 2956 
Q 1341 3275 1631 3429 
Q 1922 3584 2338 3584 
Q 2397 3584 2469 3576 
Q 2541 3569 2628 3553 
L 2631 2963 
z
" transform="scale(0.015625)"/>
       <path id="DejaVuSans-61" d="M 2194 1759 
Q 1497 1759 1228 1600 
Q 959 1441 959 1056 
Q 959 750 1161 570 
Q 1363 391 1709 391 
Q 2188 391 2477 730 
Q 2766 1069 2766 1631 
L 2766 1759 
L 2194 1759 
z
M 3341 1997 
L 3341 0 
L 2766 0 
L 2766 531 
Q 2569 213 2275 61 
Q 1981 -91 1556 -91 
Q 1019 -91 701 211 
Q 384 513 384 1019 
Q 384 1609 779 1909 
Q 1175 2209 1959 2209 
L 2766 2209 
L 2766 2266 
Q 2766 2663 2505 2880 
Q 2244 3097 1772 3097 
Q 1472 3097 1187 3025 
Q 903 2953 641 2809 
L 641 3341 
Q 956 3463 1253 3523 
Q 1550 3584 1831 3584 
Q 2591 3584 2966 3190 
Q 3341 2797 3341 1997 
z
" transform="scale(0.015625)"/>
       <path id="DejaVuSans-69" d="M 603 3500 
L 1178 3500 
L 1178 0 
L 603 0 
L 603 3500 
z
M 603 4863 
L 1178 4863 
L 1178 4134 
L 603 4134 
L 603 4863 
z
" transform="scale(0.015625)"/>
       <path id="DejaVuSans-6f" d="M 1959 3097 
Q 1497 3097 1228 2736 
Q 959 2375 959 1747 
Q 959 1119 1226 758 
Q 1494 397 1959 397 
Q 2419 397 2687 759 
Q 2956 1122 2956 1747 
Q 2956 2369 2687 2733 
Q 2419 3097 1959 3097 
z
M 1959 3584 
Q 2709 3584 3137 3096 
Q 3566 2609 3566 1747 
Q 3566 888 3137 398 
Q 2709 -91 1959 -91 
Q 1206 -91 779 398 
Q 353 888 353 1747 
Q 353 2609 779 3096 
Q 1206 3584 1959 3584 
z
" transform="scale(0.015625)"/>
       <path id="DejaVuSans-6e" d="M 3513 2113 
L 3513 0 
L 2938 0 
L 2938 2094 
Q 2938 2591 2744 2837 
Q 2550 3084 2163 3084 
Q 1697 3084 1428 2787 
Q 1159 2491 1159 1978 
L 1159 0 
L 581 0 
L 581 3500 
L 1159 3500 
L 1159 2956 
Q 1366 3272 1645 3428 
Q 1925 3584 2291 3584 
Q 2894 3584 3203 3211 
Q 3513 2838 3513 2113 
z
" transform="scale(0.015625)"/>
      </defs>
      <use xlink:href="#DejaVuSans-49"/>
      <use xlink:href="#DejaVuSans-74" transform="translate(29.492188 0)"/>
      <use xlink:href="#DejaVuSans-65" transform="translate(68.701172 0)"/>
      <use xlink:href="#DejaVuSans-72" transform="translate(130.224609 0)"/>
      <use xlink:href="#DejaVuSans-61" transform="translate(171.337891 0)"/>
      <use xlink:href="#DejaVuSans-74" transform="translate(232.617188 0)"/>
      <use xlink:href="#DejaVuSans-69" transform="translate(271.826172 0)"/>
      <use xlink:href="#DejaVuSans-6f" transform="translate(299.609375 0)"/>
      <use xlink:href="#DejaVuSans-6e" transform="translate(360.791016 0)"/>
     </g>
    </g>
   </g>
   <g id="matplotlib.axis_2">
    <g id="ytick_1">
     <g id="line2d_13">
      <path d="M 50.87 606.04 
L 1128.555 606.04 
" clip-path="url(#p4d5a346cf1)" style="fill: none; stroke: #b0b0b0; stroke-width: 0.8; stroke-linecap: square"/>
     </g>
     <g id="line2d_14">
      <defs>
       <path id="m53d717c79e" d="M 0 0 
L -3.5 0 
" style="stroke: #000000; stroke-width: 0.8"/>
      </defs>
      <g>
       <use xlink:href="#m53d717c79e" x="50.87" y="606.04" style="stroke: #000000; stroke-width: 0.8"/>
      </g>
     </g>
     <g id="text_8">
      <!-- 0 -->
      <g transform="translate(37.5075 609.839219) scale(0.1 -0.1)">
       <use xlink:href="#DejaVuSans-30"/>
      </g>
     </g>
    </g>
    <g id="ytick_2">
     <g id="line2d_15">
      <path d="M 50.87 490.208 
L 1128.555 490.208 
" clip-path="url(#p4d5a346cf1)" style="fill: none; stroke: #b0b0b0; stroke-width: 0.8; stroke-linecap: square"/>
     </g>
     <g id="line2d_16">
      <g>
       <use xlink:href="#m53d717c79e" x="50.87" y="490.208" style="stroke: #000000; stroke-width: 0.8"/>
      </g>
     </g>
     <g id="text_9">
      <!-- 20 -->
      <g transform="translate(31.145 494.007219) scale(0.1 -0.1)">
       <use xlink:href="#DejaVuSans-32"/>
       <use xlink:href="#DejaVuSans-30" transform="translate(63.623047 0)"/>
      </g>
     </g>
    </g>
    <g id="ytick_3">
     <g id="line2d_17">
      <path d="M 50.87 374.376 
L 1128.555 374.376 
" clip-path="url(#p4d5a346cf1)" style="fill: none; stroke: #b0b0b0; stroke-width: 0.8; stroke-linecap: square"/>
     </g>
     <g id="line2d_18">
      <g>
       <use xlink:href="#m53d717c79e" x="50.87" y="374.376" style="stroke: #000000; stroke-width: 0.8"/>
      </g>
     </g>
     <g id="text_10">
      <!-- 40 -->
      <g transform="translate(31.145 378.175219) scale(0.1 -0.1)">
       <use xlink:href="#DejaVuSans-34"/>
       <use xlink:href="#DejaVuSans-30" transform="translate(63.623047 0)"/>
      </g>
     </g>
    </g>
    <g id="ytick_4">
     <g id="line2d_19">
      <path d="M 50.87 258.544 
L 1128.555 258.544 
" clip-path="url(#p4d5a346cf1)" style="fill: none; stroke: #b0b0b0; stroke-width: 0.8; stroke-linecap: square"/>
     </g>
     <g id="line2d_20">
      <g>
       <use xlink:href="#m53d717c79e" x="50.87" y="258.544" style="stroke: #000000; stroke-width: 0.8"/>
      </g>
     </g>
     <g id="text_11">
      <!-- 60 -->
      <g transform="translate(31.145 262.343219) scale(0.1 -0.1)">
       <use xlink:href="#DejaVuSans-36"/>
       <use xlink:href="#DejaVuSans-30" transform="translate(63.623047 0)"/>
      </g>
     </g>
    </g>
    <g id="ytick_5">
     <g id="line2d_21">
      <path d="M 50.87 142.712 
L 1128.555 142.712 
" clip-path="url(#p4d5a346cf1)" style="fill: none; stroke: #b0b0b0; stroke-width: 0.8; stroke-linecap: square"/>
     </g>
     <g id="line2d_22">
      <g>
       <use xlink:href="#m53d717c79e" x="50.87" y="142.712" style="stroke: #000000; stroke-width: 0.8"/>
      </g>
     </g>
     <g id="text_12">
      <!-- 80 -->
      <g transform="translate(31.145 146.511219) scale(0.1 -0.1)">
       <use xlink:href="#DejaVuSans-38"/>
       <use xlink:href="#DejaVuSans-30" transform="translate(63.623047 0)"/>
      </g>
     </g>
    </g>
    <g id="ytick_6">
     <g id="line2d_23">
      <path d="M 50.87 26.88 
L 1128.555 26.88 
" clip-path="url(#p4d5a346cf1)" style="fill: none; stroke: #b0b0b0; stroke-width: 0.8; stroke-linecap: square"/>
     </g>
     <g id="line2d_24">
      <g>
       <use xlink:href="#m53d717c79e" x="50.87" y="26.88" style="stroke: #000000; stroke-width: 0.8"/>
      </g>
     </g>
     <g id="text_13">
      <!-- 100 -->
      <g transform="translate(24.7825 30.679219) scale(0.1 -0.1)">
       <use xlink:href="#DejaVuSans-31"/>
       <use xlink:href="#DejaVuSans-30" transform="translate(63.623047 0)"/>
       <use xlink:href="#DejaVuSans-30" transform="translate(127.246094 0)"/>
      </g>
     </g>
    </g>
    <g id="text_14">
     <!-- Cumulative Win Rate (%) -->
     <g transform="translate(18.702812 379.268594) rotate(-90) scale(0.1 -0.1)">
      <defs>
       <path id="DejaVuSans-43" d="M 4122 4306 
L 4122 3641 
Q 3803 3938 3442 4084 
Q 3081 4231 2675 4231 
Q 1875 4231 1450 3742 
Q 1025 3253 1025 2328 
Q 1025 1406 1450 917 
Q 1875 428 2675 428 
Q 3081 428 3442 575 
Q 3803 722 4122 1019 
L 4122 359 
Q 3791 134 3420 21 
Q 3050 -91 2638 -91 
Q 1578 -91 968 557 
Q 359 1206 359 2328 
Q 359 3453 968 4101 
Q 1578 4750 2638 4750 
Q 3056 4750 3426 4639 
Q 3797 4528 4122 4306 
z
" transform="scale(0.015625)"/>
       <path id="DejaVuSans-75" d="M 544 1381 
L 544 3500 
L 1119 3500 
L 1119 1403 
Q 1119 906 1312 657 
Q 1506 409 1894 409 
Q 2359 409 2629 706 
Q 2900 1003 2900 1516 
L 2900 3500 
L 3475 3500 
L 3475 0 
L 2900 0 
L 2900 538 
Q 2691 219 2414 64 
Q 2138 -91 1772 -91 
Q 1169 -91 856 284 
Q 544 659 544 1381 
z
M 1991 3584 
L 1991 3584 
z
" transform="scale(0.015625)"/>
       <path id="DejaVuSans-6d" d="M 3328 2828 
Q 3544 3216 3844 3400 
Q 4144 3584 4550 3584 
Q 5097 3584 5394 3201 
Q 5691 2819 5691 2113 
L 5691 0 
L 5113 0 
L 5113 2094 
Q 5113 2597 4934 2840 
Q 4756 3084 4391 3084 
Q 3944 3084 3684 2787 
Q 3425 2491 3425 1978 
L 3425 0 
L 2847 0 
L 2847 2094 
Q 2847 2600 2669 2842 
Q 2491 3084 2119 3084 
Q 1678 3084 1418 2786 
Q 1159 2488 1159 1978 
L 1159 0 
L 581 0 
L 581 3500 
L 1159 3500 
L 1159 2956 
Q 1356 3278 1631 3431 
Q 1906 3584 2284 3584 
Q 2666 3584 2933 3390 
Q 3200 3197 3328 2828 
z
" transform="scale(0.015625)"/>
       <path id="DejaVuSans-6c" d="M 603 4863 
L 1178 4863 
L 1178 0 
L 603 0 
L 603 4863 
z
" transform="scale(0.015625)"/>
       <path id="DejaVuSans-76" d="M 191 3500 
L 800 3500 
L 1894 563 
L 2988 3500 
L 3597 3500 
L 2284 0 
L 1503 0 
L 191 3500 
z
" transform="scale(0.015625)"/>
       <path id="DejaVuSans-20" transform="scale(0.015625)"/>
       <path id="DejaVuSans-57" d="M 213 4666 
L 850 4666 
L 1831 722 
L 2809 4666 
L 3519 4666 
L 4500 722 
L 5478 4666 
L 6119 4666 
L 4947 0 
L 4153 0 
L 3169 4050 
L 2175 0 
L 1381 0 
L 213 4666 
z
" transform="scale(0.015625)"/>
       <path id="DejaVuSans-52" d="M 2841 2188 
Q 3044 2119 3236 1894 
Q 3428 1669 3622 1275 
L 4263 0 
L 3584 0 
L 2988 1197 
Q 2756 1666 2539 1819 
Q 2322 1972 1947 1972 
L 1259 1972 
L 1259 0 
L 628 0 
L 628 4666 
L 2053 4666 
Q 2853 4666 3247 4331 
Q 3641 3997 3641 3322 
Q 3641 2881 3436 2590 
Q 3231 2300 2841 2188 
z
M 1259 4147 
L 1259 2491 
L 2053 2491 
Q 2509 2491 2742 2702 
Q 2975 2913 2975 3322 
Q 2975 3731 2742 3939 
Q 2509 4147 2053 4147 
L 1259 4147 
z
" transform="scale(0.015625)"/>
       <path id="DejaVuSans-28" d="M 1984 4856 
Q 1566 4138 1362 3434 
Q 1159 2731 1159 2009 
Q 1159 1288 1364 580 
Q 1569 -128 1984 -844 
L 1484 -844 
Q 1016 -109 783 600 
Q 550 1309 550 2009 
Q 550 2706 781 3412 
Q 1013 4119 1484 4856 
L 1984 4856 
z
" transform="scale(0.015625)"/>
       <path id="DejaVuSans-25" d="M 4653 2053 
Q 4381 2053 4226 1822 
Q 4072 1591 4072 1178 
Q 4072 772 4226 539 
Q 4381 306 4653 306 
Q 4919 306 5073 539 
Q 5228 772 5228 1178 
Q 5228 1588 5073 1820 
Q 4919 2053 4653 2053 
z
M 4653 2450 
Q 5147 2450 5437 2106 
Q 5728 1763 5728 1178 
Q 5728 594 5436 251 
Q 5144 -91 4653 -91 
Q 4153 -91 3862 251 
Q 3572 594 3572 1178 
Q 3572 1766 3864 2108 
Q 4156 2450 4653 2450 
z
M 1428 4353 
Q 1159 4353 1004 4120 
Q 850 3888 850 3481 
Q 850 3069 1003 2837 
Q 1156 2606 1428 2606 
Q 1700 2606 1854 2837 
Q 2009 3069 2009 3481 
Q 2009 3884 1853 4118 
Q 1697 4353 1428 4353 
z
M 4250 4750 
L 4750 4750 
L 1831 -91 
L 1331 -91 
L 4250 4750 
z
M 1428 4750 
Q 1922 4750 2215 4408 
Q 2509 4066 2509 3481 
Q 2509 2891 2217 2550 
Q 1925 2209 1428 2209 
Q 931 2209 642 2551 
Q 353 2894 353 3481 
Q 353 4063 643 4406 
Q 934 4750 1428 4750 
z
" transform="scale(0.015625)"/>
       <path id="DejaVuSans-29" d="M 513 4856 
L 1013 4856 
Q 1481 4119 1714 3412 
Q 1947 2706 1947 2009 
Q 1947 1309 1714 600 
Q 1481 -109 1013 -844 
L 513 -844 
Q 928 -128 1133 580 
Q 1338 1288 1338 2009 
Q 1338 2731 1133 3434 
Q 928 4138 513 4856 
z
" transform="scale(0.015625)"/>
      </defs>
      <use xlink:href="#DejaVuSans-43"/>
      <use xlink:href="#DejaVuSans-75" transform="translate(69.824219 0)"/>
      <use xlink:href="#DejaVuSans-6d" transform="translate(133.203125 0)"/>
      <use xlink:href="#DejaVuSans-75" transform="translate(230.615234 0)"/>
      <use xlink:href="#DejaVuSans-6c" transform="translate(293.994141 0)"/>
      <use xlink:href="#DejaVuSans-61" transform="translate(321.777344 0)"/>
      <use xlink:href="#DejaVuSans-74" transform="translate(383.056641 0)"/>
      <use xlink:href="#DejaVuSans-69" transform="translate(422.265625 0)"/>
      <use xlink:href="#DejaVuSans-76" transform="translate(450.048828 0)"/>
      <use xlink:href="#DejaVuSans-65" transform="translate(509.228516 0)"/>
      <use xlink:href="#DejaVuSans-20" transform="translate(570.751953 0)"/>
      <use xlink:href="#DejaVuSans-57" transform="translate(602.539062 0)"/>
      <use xlink:href="#DejaVuSans-69" transform="translate(699.166016 0)"/>
      <use xlink:href="#DejaVuSans-6e" transform="translate(726.949219 0)"/>
      <use xlink:href="#DejaVuSans-20" transform="translate(790.328125 0)"/>
      <use xlink:href="#DejaVuSans-52" transform="translate(822.115234 0)"/>
      <use xlink:href="#DejaVuSans-61" transform="translate(889.347656 0)"/>
      <use xlink:href="#DejaVuSans-74" transform="translate(950.626953 0)"/>
      <use xlink:href="#DejaVuSans-65" transform="translate(989.835938 0)"/>
      <use xlink:href="#DejaVuSans-20" transform="translate(1051.359375 0)"/>
      <use xlink:href="#DejaVuSans-28" transform="translate(1083.146484 0)"/>
      <use xlink:href="#DejaVuSans-25" transform="translate(1122.160156 0)"/>
      <use xlink:href="#DejaVuSans-29" transform="translate(1217.179688 0)"/>
     </g>
    </g>
   </g>
   <g id="line2d_25">
    <path d="M 50.87 413.005972 
L 1128.555 413.005972 
" clip-path="url(#p4d5a346cf1)" style="fill: none; stroke-dasharray: 5.55,2.4; stroke-dashoffset: 0; stroke: #ff0000; stroke-opacity: 0.5; stroke-width: 1.5"/>
   </g>
   <g id="line2d_26">
    <path d="M 50.87 219.914028 
L 1128.555 219.914028 
" clip-path="url(#p4d5a346cf1)" style="fill: none; stroke-dasharray: 5.55,2.4; stroke-dashoffset: 0; stroke: #008000; stroke-opacity: 0.5; stroke-width: 1.5"/>
   </g>
   <g id="line2d_27">
    <path d="M 62.724535 237.483636 
L 63.80222 219.933333 
L 64.879905 205.083077 
L 65.95759 233.722857 
L 67.035275 219.933333 
L 68.11296 244.065 
L 69.190645 231.289412 
L 70.26833 252.108889 
L 71.346015 240.254737 
L 73.501385 275.091429 
L 75.656755 303.869565 
L 76.73444 316.46 
L 77.812125 304.8768 
L 79.967495 327.185185 
L 82.122865 346.416552 
L 83.20055 335.765333 
L 84.278235 344.483871 
L 86.433605 325.235152 
L 87.51129 316.46 
L 89.66666 332.547778 
L 91.82203 316.46 
L 93.9774 330.939 
L 96.13277 344.039048 
L 98.28814 355.948182 
L 99.365825 361.505778 
L 100.44351 354.231304 
L 101.521195 359.588936 
L 102.59888 352.6575 
L 103.676565 357.828571 
L 105.831935 344.850196 
L 106.90962 349.873077 
L 107.987305 343.778868 
L 110.142675 353.315636 
L 113.37573 366.387586 
L 116.608785 378.17377 
L 119.84184 388.855 
L 123.074895 398.579701 
L 124.15258 393.113529 
L 126.30795 399.197143 
L 128.46332 388.855 
L 129.541005 391.830137 
L 131.696375 382.098133 
L 132.77406 385.044737 
L 133.851745 380.393247 
L 137.0848 388.855 
L 139.24017 380.026341 
L 142.473225 388.003294 
L 143.55091 383.804186 
L 146.783965 391.295281 
L 147.86165 387.246222 
L 150.01702 392.002609 
L 152.17239 384.234043 
L 154.32776 388.855 
L 155.405445 385.123299 
L 156.48313 387.377551 
L 157.560815 383.736162 
L 160.79387 390.27451 
L 162.94924 394.423846 
L 165.10461 387.489057 
L 166.182295 389.531589 
L 167.25998 386.173704 
L 168.337665 388.190826 
L 169.41535 384.906182 
L 170.493035 386.898378 
L 171.57072 383.683929 
L 173.72609 387.584912 
L 174.803775 384.448348 
L 178.03683 390.082034 
L 181.269885 381.077025 
L 183.425255 384.734959 
L 184.50294 381.849032 
L 185.580625 383.64256 
L 186.65831 380.811111 
L 190.96905 387.741231 
L 192.046735 389.407634 
L 195.27979 381.291343 
L 198.512845 386.212847 
L 202.823585 376.019007 
L 207.134325 382.364414 
L 210.36738 386.898378 
L 212.52275 382.098133 
L 213.600435 383.581192 
L 214.67812 381.234474 
L 220.066545 388.393885 
L 221.14423 389.771392 
L 223.2996 385.23525 
L 228.688025 391.926303 
L 229.76571 389.727229 
L 235.154135 396.052164 
L 236.23182 397.273023 
L 237.309505 395.132023 
L 242.69793 401.056404 
L 245.930985 404.453923 
L 247.00867 402.379341 
L 252.397095 407.824813 
L 254.552465 403.793651 
L 259.94089 409.006186 
L 261.018575 407.046564 
L 262.09626 408.061837 
L 263.173945 406.126904 
L 265.329315 408.13608 
L 268.56237 402.473861 
L 272.87311 406.426602 
L 273.950795 404.593043 
L 275.02848 405.561538 
L 276.106165 403.749665 
L 278.261535 405.667109 
L 279.33922 403.880377 
L 282.572275 406.701209 
L 283.64996 404.942778 
L 284.727645 405.869493 
L 285.80533 404.131009 
L 286.883015 405.052968 
L 287.9607 403.334 
L 293.349125 407.838578 
L 295.504495 404.482115 
L 296.58218 405.36614 
L 297.659865 403.713362 
L 298.73755 404.593043 
L 301.970605 399.729785 
L 308.436715 404.909121 
L 310.592085 406.578257 
L 311.66977 405.009256 
L 314.902825 407.470857 
L 315.98051 405.92374 
L 317.058195 406.733927 
L 318.13588 405.202258 
L 320.29125 406.80896 
L 321.368935 405.295299 
L 322.44662 406.091905 
L 323.524305 404.593043 
L 327.835045 407.728405 
L 329.990415 404.78749 
L 331.0681 405.561538 
L 332.145785 404.110651 
L 333.22347 404.881374 
L 334.301155 403.444106 
L 337.53421 405.729023 
L 338.611895 404.310112 
L 340.767265 405.809963 
L 342.922635 403.013432 
L 347.233375 405.966545 
L 349.388745 403.229458 
L 350.46643 403.958993 
L 351.544115 402.607455 
L 355.854855 405.482827 
L 356.93254 404.149718 
L 364.476335 409.006186 
L 365.55402 409.680959 
L 366.631705 408.374471 
L 368.787075 409.714576 
L 369.86476 408.421216 
L 370.942445 409.086599 
L 372.02013 407.804027 
L 376.33087 410.429669 
L 378.48624 407.906316 
L 382.79698 410.479481 
L 383.874665 409.238058 
L 392.496145 414.204669 
L 393.57383 414.807925 
L 394.651515 413.59185 
L 395.7292 414.19325 
L 396.806885 412.986667 
L 397.88457 413.586211 
L 400.03994 411.199136 
L 408.66142 415.894096 
L 409.739105 414.725886 
L 415.12753 417.555976 
L 416.205215 416.40354 
L 419.43827 418.067018 
L 420.515955 416.926531 
L 423.74901 418.566243 
L 424.826695 417.437464 
L 428.05975 419.054057 
L 432.37049 414.622712 
L 433.448175 415.161915 
L 434.52586 414.071236 
L 435.603545 414.608964 
L 436.68123 413.525922 
L 439.914285 415.125762 
L 443.14734 411.925934 
L 445.30271 412.986667 
L 446.380395 411.934605 
L 448.535765 412.986667 
L 450.691135 410.905229 
L 459.312615 415.024169 
L 461.467985 412.986667 
L 471.16715 417.441744 
L 473.32252 415.449082 
L 477.63326 417.374242 
L 478.710945 416.39063 
L 480.866315 417.341253 
L 484.09937 414.427363 
L 489.487795 416.781327 
L 495.953905 411.116901 
L 497.03159 411.587729 
L 502.420015 406.996945 
L 507.80844 409.344151 
L 508.886125 408.444235 
L 515.352235 411.194988 
L 517.507605 409.419861 
L 518.58529 409.872903 
L 519.662975 408.99246 
L 521.818345 409.894279 
L 522.89603 409.019817 
L 525.0514 409.915364 
L 528.284455 407.321445 
L 530.439825 408.214562 
L 531.51751 407.359552 
L 532.595195 407.804027 
L 533.67288 406.95375 
L 543.372045 410.874486 
L 544.44973 410.03607 
L 545.527415 410.463094 
L 546.6051 409.629217 
L 547.682785 410.055271 
L 548.76047 409.225887 
L 550.91584 410.074224 
L 555.22658 406.79906 
L 557.38195 407.646894 
L 558.459635 406.838471 
L 559.53732 407.260508 
L 560.615005 406.456321 
L 564.925745 408.129979 
L 566.00343 407.332385 
L 567.081115 407.747223 
L 568.1588 406.95375 
L 571.391855 408.190311 
L 573.547225 406.617897 
L 575.702595 407.436879 
L 577.857965 405.880409 
L 581.09102 407.100894 
L 582.168705 406.329655 
L 586.479445 407.936982 
L 587.55713 407.171807 
L 589.7125 407.96728 
L 591.86787 406.449004 
L 592.945555 406.845805 
L 596.17861 404.593043 
L 603.722405 407.341832 
L 604.80009 406.601634 
L 608.033145 407.758917 
L 609.11083 407.023629 
L 610.188515 407.407091 
L 611.2662 406.675308 
L 613.42157 407.439157 
L 614.499255 406.711511 
L 619.88768 408.599091 
L 620.965365 407.877505 
L 623.120735 408.623879 
L 624.19842 407.906316 
L 625.276105 408.278049 
L 627.431475 406.852262 
L 636.052955 409.786888 
L 637.13064 409.083015 
L 639.28601 409.804469 
L 641.44138 408.406934 
L 646.829805 410.193852 
L 652.21823 406.75914 
L 653.295915 407.115635 
L 656.52897 405.085907 
L 657.606655 405.442842 
L 659.762025 404.102796 
L 662.99508 405.169366 
L 664.072765 404.504534 
L 666.228135 405.210438 
L 668.383505 403.889913 
L 670.538875 404.593043 
L 671.61656 403.937292 
L 674.849615 404.984456 
L 675.9273 404.332552 
L 678.08267 405.025704 
L 679.160355 404.377084 
L 680.23804 404.722397 
L 681.315725 404.076513 
L 682.39341 404.42116 
L 686.70415 401.861559 
L 701.79174 406.594172 
L 702.869425 406.923835 
L 703.94711 406.2967 
L 707.180165 407.280657 
L 708.25785 406.657049 
L 709.335535 406.983372 
L 710.41322 406.362288 
L 711.490905 406.688026 
L 712.56859 406.069446 
L 713.646275 406.394602 
L 714.72396 405.778506 
L 721.19007 407.710289 
L 722.267755 407.099005 
L 725.50081 408.052396 
L 726.578495 407.444466 
L 728.733865 408.07593 
L 730.889235 406.867702 
L 731.96692 407.182848 
L 734.12229 405.983155 
L 736.27766 406.612264 
L 737.355345 406.016138 
L 738.43303 406.329655 
L 739.510715 405.735837 
L 741.666085 406.360811 
L 742.74377 405.76972 
L 745.976825 406.701209 
L 748.132195 405.52711 
L 749.20988 405.836543 
L 750.287565 405.252635 
L 753.52062 406.176503 
L 755.67599 405.016575 
L 757.83136 405.629451 
L 758.909045 405.052968 
L 759.98673 405.358419 
L 761.064415 404.784097 
L 762.1421 405.08903 
L 764.29747 403.946405 
L 773.996635 406.657049 
L 775.07432 406.091905 
L 785.85117 409.023695 
L 786.928855 408.464187 
L 793.394965 410.184731 
L 794.47265 409.629217 
L 799.861075 411.042245 
L 800.93876 410.490287 
L 802.016445 410.770846 
L 803.09413 410.22086 
L 804.171815 410.501001 
L 806.327185 409.406505 
L 808.482555 409.965917 
L 809.56024 409.421761 
L 812.793295 410.256068 
L 814.948665 409.174612 
L 816.02635 409.451887 
L 817.104035 408.913812 
L 821.414775 410.016615 
L 822.49246 409.481508 
L 823.570145 409.755649 
L 824.64783 409.222396 
L 825.725515 409.496134 
L 827.880885 408.434785 
L 834.346995 410.06564 
L 835.42468 409.539286 
L 840.813105 410.879673 
L 842.968475 409.834776 
L 848.3569 411.160486 
L 851.589955 409.608883 
L 853.745325 410.136215 
L 854.82301 409.622466 
L 856.97838 410.147647 
L 858.056065 409.635941 
L 859.13375 409.897813 
L 861.28912 408.879149 
L 870.988285 411.21088 
L 872.06597 410.706509 
L 892.541985 415.45854 
L 895.77504 416.187806 
L 896.852725 415.691873 
L 899.008095 416.175604 
L 900.08578 415.681574 
L 902.24115 416.163494 
L 905.474205 414.690794 
L 908.70726 415.41196 
L 909.784945 414.924467 
L 911.940315 415.402854 
L 913.018 414.9172 
L 917.32874 415.86806 
L 919.48411 414.902829 
L 921.63948 415.375941 
L 923.79485 414.416691 
L 924.872535 414.652972 
L 925.95022 414.175419 
L 931.338645 415.349621 
L 932.41633 414.874719 
L 933.494015 415.108132 
L 934.5717 414.634683 
L 937.804755 415.332394 
L 938.88244 414.860971 
L 942.115495 415.554486 
L 943.19318 415.085072 
L 945.34855 415.545205 
L 946.426235 415.077497 
L 949.65929 415.764412 
L 951.81466 414.834067 
L 952.892345 415.062509 
L 953.97003 414.599284 
L 956.1254 415.055095 
L 957.203085 414.593532 
L 959.358455 415.047734 
L 960.43614 414.58782 
L 964.74688 415.490896 
L 966.90225 414.576518 
L 967.979935 414.801504 
L 969.05762 414.346197 
L 970.135305 414.570926 
L 972.290675 413.664047 
L 975.52373 414.33669 
L 978.756785 412.986667 
L 984.14521 414.101293 
L 985.222895 413.654671 
L 987.378265 414.097445 
L 989.533635 413.208312 
L 990.61132 413.42945 
L 991.689005 412.986667 
L 997.07743 414.086059 
L 998.155115 413.645552 
L 1001.38817 414.299955 
L 1003.54354 413.423439 
L 1007.85428 414.291081 
L 1008.931965 413.855298 
L 1015.398075 415.143687 
L 1016.47576 414.710357 
L 1022.94187 415.98306 
L 1024.019555 415.552159 
L 1025.09724 415.762876 
L 1026.174925 415.333171 
L 1027.25261 415.543664 
L 1028.330295 415.115149 
L 1031.56335 415.744571 
L 1033.71872 414.891798 
L 1034.796405 415.101161 
L 1038.02946 413.829694 
L 1040.18483 414.248453 
L 1042.3402 413.406348 
L 1045.573255 414.032459 
L 1046.65094 413.613463 
L 1047.728625 413.821492 
L 1048.80631 413.403629 
L 1054.194735 414.438195 
L 1055.27242 414.022361 
L 1057.42779 414.433533 
L 1058.505475 414.019037 
L 1060.660845 414.428901 
L 1067.126955 411.963054 
L 1074.67075 413.393095 
L 1076.82612 412.581092 
L 1077.903805 412.784092 
L 1078.98149 412.379581 
L 1080.059175 412.582366 
L 1081.13686 412.178912 
L 1084.369915 412.78536 
L 1085.4476 412.383375 
L 1088.680655 412.986667 
L 1089.75834 412.586141 
L 1090.836025 412.786611 
L 1091.91371 412.387122 
L 1095.146765 412.986667 
L 1096.22445 412.588619 
L 1097.302135 412.787848 
L 1099.457505 411.994615 
L 1101.612875 412.392656 
L 1103.768245 411.60348 
L 1112.389725 413.18266 
L 1116.700465 411.620263 
L 1117.77815 411.816646 
L 1118.855835 411.428214 
L 1119.93352 411.624395 
L 1121.011205 411.236939 
L 1123.166575 411.628503 
L 1124.24426 411.242209 
L 1125.321945 411.437593 
L 1126.39963 411.052265 
L 1127.477315 411.247447 
L 1128.555 410.86308 
L 1128.555 410.86308 
" clip-path="url(#p4d5a346cf1)" style="fill: none; stroke: #ff0000; stroke-width: 1.5; stroke-linecap: square"/>
   </g>
   <g id="line2d_28">
    <path d="M 62.724535 184.832727 
L 63.80222 219.933333 
L 64.879905 205.083077 
L 65.95759 192.354286 
L 67.035275 181.322667 
L 68.11296 171.67 
L 69.190645 163.152941 
L 70.26833 155.582222 
L 72.4237 142.712 
L 73.501385 164.775238 
L 75.656755 152.784348 
L 77.812125 142.712 
L 79.967495 134.131852 
L 82.122865 126.735172 
L 84.278235 120.292903 
L 86.433605 149.732121 
L 88.588975 142.712 
L 90.744345 167.756757 
L 92.899715 160.532308 
L 95.055085 154.012683 
L 96.13277 150.985714 
L 97.210455 161.568372 
L 98.28814 158.507273 
L 99.365825 168.452444 
L 101.521195 162.428085 
L 102.59888 171.67 
L 104.75425 165.8784 
L 105.831935 174.50902 
L 107.987305 168.938113 
L 109.06499 177.032593 
L 112.298045 169.129825 
L 113.37573 166.677241 
L 116.608785 188.285246 
L 118.764155 183.16127 
L 119.84184 189.76875 
L 121.99721 184.832727 
L 124.15258 197.221176 
L 126.30795 192.354286 
L 127.385635 198.180845 
L 128.46332 195.801667 
L 129.541005 201.42137 
L 130.61869 199.062703 
L 132.77406 209.772632 
L 133.851745 207.397403 
L 137.0848 222.3465 
L 140.317855 215.281446 
L 141.39554 219.933333 
L 142.473225 217.662118 
L 143.55091 222.17814 
L 146.783965 215.595056 
L 150.01702 209.441304 
L 151.094705 207.47828 
L 152.17239 211.718298 
L 155.405445 206.001649 
L 156.48313 204.173878 
L 158.6385 212.2112 
L 159.716185 210.376238 
L 162.94924 221.789615 
L 164.026925 219.933333 
L 167.25998 230.658519 
L 168.337665 234.102385 
L 171.57072 228.551786 
L 172.648405 231.892389 
L 173.72609 230.094035 
L 176.959145 239.733675 
L 180.1922 234.412333 
L 181.269885 237.483636 
L 185.580625 230.74432 
L 187.735995 236.654488 
L 190.96905 231.813538 
L 193.12442 237.483636 
L 195.27979 234.340299 
L 197.43516 239.806471 
L 200.668215 235.210935 
L 201.7459 237.859714 
L 202.823585 236.363404 
L 207.134325 246.561379 
L 208.21201 249.023562 
L 210.36738 246.021622 
L 212.52275 250.821867 
L 213.600435 249.338808 
L 215.755805 254.001569 
L 218.98886 249.633846 
L 220.066545 251.903949 
L 223.2996 247.68475 
L 224.377285 249.910559 
L 226.532655 247.173988 
L 227.61034 249.362195 
L 229.76571 246.681687 
L 230.843395 248.833533 
L 231.92108 247.512381 
L 232.998765 249.633846 
L 238.38719 243.232874 
L 243.775615 237.189497 
L 249.16404 231.474565 
L 254.552465 226.062011 
L 255.63015 228.061895 
L 256.707835 227.008586 
L 258.863205 230.936373 
L 261.018575 228.843487 
L 262.09626 230.767959 
L 266.407 226.6902 
L 267.484685 228.577512 
L 268.56237 227.57901 
L 270.71774 231.289412 
L 271.795425 230.292293 
L 272.87311 232.116311 
L 275.02848 230.142885 
L 276.106165 231.941435 
L 282.572275 226.218791 
L 286.883015 222.5779 
L 287.9607 224.320909 
L 289.038385 223.427511 
L 290.11607 225.150991 
L 292.27144 223.380714 
L 293.349125 225.081422 
L 294.42681 224.204425 
L 296.58218 227.55386 
L 297.659865 226.677555 
L 298.73755 228.326957 
L 304.125975 224.040851 
L 305.20366 225.659492 
L 307.35903 223.989076 
L 308.436715 225.587615 
L 314.902825 220.721306 
L 315.98051 222.287642 
L 317.058195 221.496518 
L 318.13588 223.047097 
L 325.679675 217.662118 
L 327.835045 216.177432 
L 328.91273 217.688527 
L 331.0681 216.220769 
L 334.301155 220.667376 
L 339.68958 217.05194 
L 340.767265 218.497993 
L 346.15569 215.001314 
L 347.233375 216.423273 
L 348.31106 215.736522 
L 349.388745 217.14556 
L 350.46643 216.461151 
L 351.544115 217.857491 
L 354.77717 215.825816 
L 355.854855 217.204664 
L 360.165595 214.552056 
L 363.39865 218.601931 
L 364.476335 217.943093 
L 365.55402 219.272192 
L 368.787075 217.315661 
L 369.86476 218.628919 
L 378.48624 213.582895 
L 383.874665 210.561812 
L 386.030035 213.10508 
L 394.651515 208.434859 
L 396.806885 207.303676 
L 397.88457 208.541988 
L 400.03994 207.420617 
L 401.117625 208.647138 
L 402.19531 208.089571 
L 403.272995 209.306544 
L 404.35068 208.750366 
L 405.428365 209.957933 
L 407.583735 208.851722 
L 408.66142 210.048072 
L 409.739105 209.498018 
L 410.81679 210.685269 
L 414.049845 209.049021 
L 417.2829 212.551882 
L 419.43827 211.466082 
L 420.515955 212.616443 
L 426.982065 209.423266 
L 428.05975 210.556457 
L 429.137435 210.033162 
L 434.52586 215.595056 
L 436.68123 214.540782 
L 439.914285 217.794238 
L 440.99197 217.266851 
L 444.225025 220.462247 
L 449.61345 217.84627 
L 451.76882 219.933333 
L 462.54567 214.879581 
L 464.70104 213.900417 
L 465.778725 214.918961 
L 466.85641 214.431813 
L 467.934095 215.443721 
L 471.16715 213.993231 
L 474.400205 216.985954 
L 475.47789 216.503452 
L 476.555575 217.48962 
L 477.63326 217.008283 
L 478.710945 217.988212 
L 479.78863 217.50804 
L 481.944 219.4507 
L 488.41011 216.604828 
L 490.56548 218.513824 
L 492.72085 217.579024 
L 494.87622 219.464757 
L 500.264645 217.155588 
L 502.420015 219.011838 
L 507.80844 216.746132 
L 508.886125 217.662118 
L 509.96381 217.214272 
L 511.041495 218.124871 
L 512.11918 217.678037 
L 514.27455 219.484372 
L 518.58529 217.709217 
L 519.662975 218.601931 
L 529.36214 214.715676 
L 531.51751 216.470493 
L 536.905935 214.368603 
L 537.98362 215.235133 
L 539.061305 214.819338 
L 540.13899 215.681057 
L 543.372045 214.441663 
L 544.44973 215.296681 
L 545.527415 214.886187 
L 546.6051 215.736522 
L 551.993525 213.705806 
L 553.07121 214.547725 
L 555.22658 213.745726 
L 556.304265 214.582175 
L 557.38195 214.182809 
L 558.459635 215.014777 
L 562.770375 213.430484 
L 564.925745 215.076646 
L 567.081115 214.290856 
L 568.1588 215.107 
L 575.702595 212.401478 
L 577.857965 214.011452 
L 580.013335 213.249206 
L 582.168705 214.842677 
L 583.24639 214.462186 
L 584.324075 215.253253 
L 585.40176 214.873468 
L 586.479445 215.660523 
L 587.55713 215.281446 
L 591.86787 218.39506 
L 592.945555 218.014314 
L 594.02324 218.784206 
L 595.100925 218.404198 
L 596.17861 219.170277 
L 598.33398 218.413228 
L 599.411665 219.174774 
L 603.722405 217.6754 
L 604.80009 218.430973 
L 605.877775 218.059029 
L 606.95546 218.81093 
L 608.033145 218.439691 
L 610.188515 219.933333 
L 612.343885 219.192246 
L 613.42157 219.933333 
L 616.654625 218.830171 
L 618.809995 220.299658 
L 624.19842 218.481805 
L 625.276105 219.208931 
L 630.66453 217.421487 
L 632.8199 218.860815 
L 633.897585 218.505952 
L 636.052955 219.933333 
L 637.13064 219.578456 
L 638.208325 220.28756 
L 642.519065 218.878397 
L 643.59675 219.582327 
L 646.829805 218.536926 
L 647.90749 219.23639 
L 651.140545 218.200359 
L 653.295915 219.587979 
L 658.68434 217.879574 
L 659.762025 218.566584 
L 662.99508 217.554155 
L 664.072765 218.236907 
L 665.15045 217.901193 
L 666.228135 218.580946 
L 667.30582 218.245804 
L 670.538875 220.269078 
L 672.694245 219.598752 
L 673.77193 220.267336 
L 679.160355 218.608782 
L 680.23804 219.272192 
L 685.626465 217.638981 
L 686.70415 218.297288 
L 687.781835 217.973401 
L 688.85952 218.628919 
L 689.937205 218.305565 
L 691.01489 218.958316 
L 693.17026 218.313758 
L 696.403315 220.255626 
L 697.481 219.933333 
L 698.558685 220.575774 
L 699.63637 220.25402 
L 700.714055 220.893798 
L 706.10248 219.298289 
L 707.180165 219.933333 
L 711.490905 218.673605 
L 713.646275 219.933333 
L 715.801645 219.307553 
L 716.87933 219.933333 
L 717.957015 219.621454 
L 719.0347 220.24471 
L 722.267755 219.313579 
L 723.34544 219.933333 
L 725.50081 219.31655 
L 726.578495 219.933333 
L 731.96692 218.406013 
L 734.12229 219.628833 
L 739.510715 218.120626 
L 741.666085 219.330983 
L 742.74377 219.031215 
L 743.821455 219.633095 
L 750.287565 217.851094 
L 751.36525 218.448308 
L 761.064415 215.832049 
L 764.29747 217.600363 
L 765.375155 217.3127 
L 766.45284 217.898133 
L 772.91895 216.187522 
L 775.07432 217.347798 
L 776.152005 217.064785 
L 777.22969 217.641899 
L 779.38506 217.077515 
L 781.54043 218.224897 
L 782.618115 217.943093 
L 783.6958 218.513824 
L 784.773485 218.232423 
L 788.00654 219.933333 
L 799.861075 216.877813 
L 800.93876 217.436954 
L 803.09413 216.890946 
L 806.327185 218.556348 
L 807.40487 218.283305 
L 808.482555 218.834879 
L 809.56024 218.562216 
L 812.793295 220.206393 
L 813.87098 219.933333 
L 816.02635 221.020958 
L 818.18172 220.475618 
L 819.259405 221.016381 
L 824.64783 219.664457 
L 825.725515 220.201836 
L 827.880885 219.665576 
L 832.191625 221.797297 
L 833.26931 221.528815 
L 834.346995 222.057717 
L 837.58005 221.255616 
L 838.657735 221.781997 
L 841.89079 220.985395 
L 845.123845 222.552782 
L 850.51227 221.234232 
L 851.589955 221.75214 
L 852.66764 221.490215 
L 854.82301 222.52118 
L 856.97838 221.998075 
L 859.13375 223.022187 
L 866.677545 221.208454 
L 867.75523 221.716148 
L 875.299025 219.933333 
L 877.454395 220.94013 
L 881.765135 219.933333 
L 882.84282 220.433472 
L 883.920505 220.183079 
L 884.99819 220.681602 
L 892.541985 218.944584 
L 893.61967 219.439591 
L 894.697355 219.193665 
L 895.77504 219.687092 
L 896.852725 219.441478 
L 897.93041 219.933333 
L 903.318835 218.713021 
L 905.474205 219.689887 
L 907.629575 219.20483 
L 909.784945 220.175558 
L 910.86263 219.933333 
L 911.940315 220.416571 
L 913.018 220.17465 
L 914.095685 220.65638 
L 915.17337 220.414763 
L 916.251055 220.894994 
L 918.406425 220.412969 
L 919.48411 220.891414 
L 934.5717 217.579024 
L 935.649385 218.05218 
L 937.804755 217.587606 
L 938.88244 218.059029 
L 939.960125 217.827297 
L 942.115495 218.766143 
L 944.270865 218.303209 
L 947.50392 219.701298 
L 951.81466 218.778708 
L 952.892345 219.241386 
L 957.203085 218.326468 
L 959.358455 219.246311 
L 963.669195 218.337851 
L 965.824565 219.251166 
L 966.90225 219.024847 
L 967.979935 219.479624 
L 974.446045 218.131202 
L 976.601415 219.034366 
L 977.6791 218.81093 
L 981.98984 220.603657 
L 984.14521 220.156259 
L 985.222895 220.601338 
L 990.61132 219.49055 
L 992.76669 220.375103 
L 993.844375 220.153966 
L 999.2328 222.3465 
L 1003.54354 221.462036 
L 1005.69891 222.330158 
L 1006.776595 222.109808 
L 1010.00965 223.403955 
L 1014.32039 222.524653 
L 1016.47576 223.380714 
L 1019.708815 222.724983 
L 1020.7865 223.150889 
L 1021.864185 222.933052 
L 1024.019555 223.781573 
L 1026.174925 223.346431 
L 1027.25261 223.76883 
L 1028.330295 223.551753 
L 1029.40798 223.972996 
L 1031.56335 223.539824 
L 1032.641035 223.959693 
L 1034.796405 223.527974 
L 1038.02946 224.780742 
L 1039.107145 224.564929 
L 1042.3402 225.80887 
L 1044.49557 225.377354 
L 1045.573255 225.789772 
L 1050.96168 224.71806 
L 1052.039365 225.128525 
L 1053.11705 224.915355 
L 1054.194735 225.324726 
L 1056.350105 224.899335 
L 1057.42779 225.307409 
L 1060.660845 224.672102 
L 1063.8939 225.889234 
L 1069.282325 224.836275 
L 1074.67075 226.842611 
L 1077.903805 226.213137 
L 1080.059175 227.008586 
L 1083.29223 226.381879 
L 1084.369915 226.777769 
L 1092.991395 225.124012 
L 1094.06908 225.517521 
L 1101.612875 224.091405 
L 1102.69056 224.482746 
L 1105.923615 223.877222 
L 1108.078985 224.656351 
L 1109.15667 224.454949 
L 1110.234355 224.843133 
L 1115.62278 223.841296 
L 1116.700465 224.227745 
L 1124.24426 222.840763 
L 1125.321945 223.225115 
L 1128.555 222.63608 
L 1128.555 222.63608 
" clip-path="url(#p4d5a346cf1)" style="fill: none; stroke: #008000; stroke-width: 1.5; stroke-linecap: square"/>
   </g>
   <g id="patch_3">
    <path d="M 50.87 606.04 
L 50.87 26.88 
" style="fill: none; stroke: #000000; stroke-width: 0.8; stroke-linejoin: miter; stroke-linecap: square"/>
   </g>
   <g id="patch_4">
    <path d="M 1128.555 606.04 
L 1128.555 26.88 
" style="fill: none; stroke: #000000; stroke-width: 0.8; stroke-linejoin: miter; stroke-linecap: square"/>
   </g>
   <g id="patch_5">
    <path d="M 50.87 606.04 
L 1128.555 606.04 
" style="fill: none; stroke: #000000; stroke-width: 0.8; stroke-linejoin: miter; stroke-linecap: square"/>
   </g>
   <g id="patch_6">
    <path d="M 50.87 26.88 
L 1128.555 26.88 
" style="fill: none; stroke: #000000; stroke-width: 0.8; stroke-linejoin: miter; stroke-linecap: square"/>
   </g>
   <g id="text_15">
    <!-- Monty Hall: Win Rate Over Iterations (3 Doors) -->
    <g transform="translate(450.181563 20.88) scale(0.12 -0.12)">
     <defs>
      <path id="DejaVuSans-4d" d="M 628 4666 
L 1569 4666 
L 2759 1491 
L 3956 4666 
L 4897 4666 
L 4897 0 
L 4281 0 
L 4281 4097 
L 3078 897 
L 2444 897 
L 1241 4097 
L 1241 0 
L 628 0 
L 628 4666 
z
" transform="scale(0.015625)"/>
      <path id="DejaVuSans-79" d="M 2059 -325 
Q 1816 -950 1584 -1140 
Q 1353 -1331 966 -1331 
L 506 -1331 
L 506 -850 
L 844 -850 
Q 1081 -850 1212 -737 
Q 1344 -625 1503 -206 
L 1606 56 
L 191 3500 
L 800 3500 
L 1894 763 
L 2988 3500 
L 3597 3500 
L 2059 -325 
z
" transform="scale(0.015625)"/>
      <path id="DejaVuSans-48" d="M 628 4666 
L 1259 4666 
L 1259 2753 
L 3553 2753 
L 3553 4666 
L 4184 4666 
L 4184 0 
L 3553 0 
L 3553 2222 
L 1259 2222 
L 1259 0 
L 628 0 
L 628 4666 
z
" transform="scale(0.015625)"/>
      <path id="DejaVuSans-3a" d="M 750 794 
L 1409 794 
L 1409 0 
L 750 0 
L 750 794 
z
M 750 3309 
L 1409 3309 
L 1409 2516 
L 750 2516 
L 750 3309 
z
" transform="scale(0.015625)"/>
      <path id="DejaVuSans-4f" d="M 2522 4238 
Q 1834 4238 1429 3725 
Q 1025 3213 1025 2328 
Q 1025 1447 1429 934 
Q 1834 422 2522 422 
Q 3209 422 3611 934 
Q 4013 1447 4013 2328 
Q 4013 3213 3611 3725 
Q 3209 4238 2522 4238 
z
M 2522 4750 
Q 3503 4750 4090 4092 
Q 4678 3434 4678 2328 
Q 4678 1225 4090 567 
Q 3503 -91 2522 -91 
Q 1538 -91 948 565 
Q 359 1222 359 2328 
Q 359 3434 948 4092 
Q 1538 4750 2522 4750 
z
" transform="scale(0.015625)"/>
      <path id="DejaVuSans-73" d="M 2834 3397 
L 2834 2853 
Q 2591 2978 2328 3040 
Q 2066 3103 1784 3103 
Q 1356 3103 1142 2972 
Q 928 2841 928 2578 
Q 928 2378 1081 2264 
Q 1234 2150 1697 2047 
L 1894 2003 
Q 2506 1872 2764 1633 
Q 3022 1394 3022 966 
Q 3022 478 2636 193 
Q 2250 -91 1575 -91 
Q 1294 -91 989 -36 
Q 684 19 347 128 
L 347 722 
Q 666 556 975 473 
Q 1284 391 1588 391 
Q 1994 391 2212 530 
Q 2431 669 2431 922 
Q 2431 1156 2273 1281 
Q 2116 1406 1581 1522 
L 1381 1569 
Q 847 1681 609 1914 
Q 372 2147 372 2553 
Q 372 3047 722 3315 
Q 1072 3584 1716 3584 
Q 2034 3584 2315 3537 
Q 2597 3491 2834 3397 
z
" transform="scale(0.015625)"/>
      <path id="DejaVuSans-33" d="M 2597 2516 
Q 3050 2419 3304 2112 
Q 3559 1806 3559 1356 
Q 3559 666 3084 287 
Q 2609 -91 1734 -91 
Q 1441 -91 1130 -33 
Q 819 25 488 141 
L 488 750 
Q 750 597 1062 519 
Q 1375 441 1716 441 
Q 2309 441 2620 675 
Q 2931 909 2931 1356 
Q 2931 1769 2642 2001 
Q 2353 2234 1838 2234 
L 1294 2234 
L 1294 2753 
L 1863 2753 
Q 2328 2753 2575 2939 
Q 2822 3125 2822 3475 
Q 2822 3834 2567 4026 
Q 2313 4219 1838 4219 
Q 1578 4219 1281 4162 
Q 984 4106 628 3988 
L 628 4550 
Q 988 4650 1302 4700 
Q 1616 4750 1894 4750 
Q 2613 4750 3031 4423 
Q 3450 4097 3450 3541 
Q 3450 3153 3228 2886 
Q 3006 2619 2597 2516 
z
" transform="scale(0.015625)"/>
      <path id="DejaVuSans-44" d="M 1259 4147 
L 1259 519 
L 2022 519 
Q 2988 519 3436 956 
Q 3884 1394 3884 2338 
Q 3884 3275 3436 3711 
Q 2988 4147 2022 4147 
L 1259 4147 
z
M 628 4666 
L 1925 4666 
Q 3281 4666 3915 4102 
Q 4550 3538 4550 2338 
Q 4550 1131 3912 565 
Q 3275 0 1925 0 
L 628 0 
L 628 4666 
z
" transform="scale(0.015625)"/>
     </defs>
     <use xlink:href="#DejaVuSans-4d"/>
     <use xlink:href="#DejaVuSans-6f" transform="translate(86.279297 0)"/>
     <use xlink:href="#DejaVuSans-6e" transform="translate(147.460938 0)"/>
     <use xlink:href="#DejaVuSans-74" transform="translate(210.839844 0)"/>
     <use xlink:href="#DejaVuSans-79" transform="translate(250.048828 0)"/>
     <use xlink:href="#DejaVuSans-20" transform="translate(309.228516 0)"/>
     <use xlink:href="#DejaVuSans-48" transform="translate(341.015625 0)"/>
     <use xlink:href="#DejaVuSans-61" transform="translate(416.210938 0)"/>
     <use xlink:href="#DejaVuSans-6c" transform="translate(477.490234 0)"/>
     <use xlink:href="#DejaVuSans-6c" transform="translate(505.273438 0)"/>
     <use xlink:href="#DejaVuSans-3a" transform="translate(533.056641 0)"/>
     <use xlink:href="#DejaVuSans-20" transform="translate(566.748047 0)"/>
     <use xlink:href="#DejaVuSans-57" transform="translate(598.535156 0)"/>
     <use xlink:href="#DejaVuSans-69" transform="translate(695.162109 0)"/>
     <use xlink:href="#DejaVuSans-6e" transform="translate(722.945312 0)"/>
     <use xlink:href="#DejaVuSans-20" transform="translate(786.324219 0)"/>
     <use xlink:href="#DejaVuSans-52" transform="translate(818.111328 0)"/>
     <use xlink:href="#DejaVuSans-61" transform="translate(885.34375 0)"/>
     <use xlink:href="#DejaVuSans-74" transform="translate(946.623047 0)"/>
     <use xlink:href="#DejaVuSans-65" transform="translate(985.832031 0)"/>
     <use xlink:href="#DejaVuSans-20" transform="translate(1047.355469 0)"/>
     <use xlink:href="#DejaVuSans-4f" transform="translate(1079.142578 0)"/>
     <use xlink:href="#DejaVuSans-76" transform="translate(1157.853516 0)"/>
     <use xlink:href="#DejaVuSans-65" transform="translate(1217.033203 0)"/>
     <use xlink:href="#DejaVuSans-72" transform="translate(1278.556641 0)"/>
     <use xlink:href="#DejaVuSans-20" transform="translate(1319.669922 0)"/>
     <use xlink:href="#DejaVuSans-49" transform="translate(1351.457031 0)"/>
     <use xlink:href="#DejaVuSans-74" transform="translate(1380.949219 0)"/>
     <use xlink:href="#DejaVuSans-65" transform="translate(1420.158203 0)"/>
     <use xlink:href="#DejaVuSans-72" transform="translate(1481.681641 0)"/>
     <use xlink:href="#DejaVuSans-61" transform="translate(1522.794922 0)"/>
     <use xlink:href="#DejaVuSans-74" transform="translate(1584.074219 0)"/>
     <use xlink:href="#DejaVuSans-69" transform="translate(1623.283203 0)"/>
     <use xlink:href="#DejaVuSans-6f" transform="translate(1651.066406 0)"/>
     <use xlink:href="#DejaVuSans-6e" transform="translate(1712.248047 0)"/>
     <use xlink:href="#DejaVuSans-73" transform="translate(1775.626953 0)"/>
     <use xlink:href="#DejaVuSans-20" transform="translate(1827.726562 0)"/>
     <use xlink:href="#DejaVuSans-28" transform="translate(1859.513672 0)"/>
     <use xlink:href="#DejaVuSans-33" transform="translate(1898.527344 0)"/>
     <use xlink:href="#DejaVuSans-20" transform="translate(1962.150391 0)"/>
     <use xlink:href="#DejaVuSans-44" transform="translate(1993.9375 0)"/>
     <use xlink:href="#DejaVuSans-6f" transform="translate(2070.939453 0)"/>
     <use xlink:href="#DejaVuSans-6f" transform="translate(2132.121094 0)"/>
     <use xlink:href="#DejaVuSans-72" transform="translate(2193.302734 0)"/>
     <use xlink:href="#DejaVuSans-73" transform="translate(2234.416016 0)"/>
     <use xlink:href="#DejaVuSans-29" transform="translate(2286.515625 0)"/>
    </g>
   </g>
   <g id="legend_1">
    <g id="patch_7">
     <path d="M 1056.494063 64.23625 
L 1121.555 64.23625 
Q 1123.555 64.23625 1123.555 62.23625 
L 1123.555 33.88 
Q 1123.555 31.88 1121.555 31.88 
L 1056.494063 31.88 
Q 1054.494063 31.88 1054.494063 33.88 
L 1054.494063 62.23625 
Q 1054.494063 64.23625 1056.494063 64.23625 
z
" style="fill: #ffffff; opacity: 0.8; stroke: #cccccc; stroke-linejoin: miter"/>
    </g>
    <g id="line2d_29">
     <path d="M 1058.494063 39.978438 
L 1068.494063 39.978438 
L 1078.494063 39.978438 
" style="fill: none; stroke: #ff0000; stroke-width: 1.5; stroke-linecap: square"/>
    </g>
    <g id="text_16">
     <!-- Stay -->
     <g transform="translate(1086.494063 43.478438) scale(0.1 -0.1)">
      <defs>
       <path id="DejaVuSans-53" d="M 3425 4513 
L 3425 3897 
Q 3066 4069 2747 4153 
Q 2428 4238 2131 4238 
Q 1616 4238 1336 4038 
Q 1056 3838 1056 3469 
Q 1056 3159 1242 3001 
Q 1428 2844 1947 2747 
L 2328 2669 
Q 3034 2534 3370 2195 
Q 3706 1856 3706 1288 
Q 3706 609 3251 259 
Q 2797 -91 1919 -91 
Q 1588 -91 1214 -16 
Q 841 59 441 206 
L 441 856 
Q 825 641 1194 531 
Q 1563 422 1919 422 
Q 2459 422 2753 634 
Q 3047 847 3047 1241 
Q 3047 1584 2836 1778 
Q 2625 1972 2144 2069 
L 1759 2144 
Q 1053 2284 737 2584 
Q 422 2884 422 3419 
Q 422 4038 858 4394 
Q 1294 4750 2059 4750 
Q 2388 4750 2728 4690 
Q 3069 4631 3425 4513 
z
" transform="scale(0.015625)"/>
      </defs>
      <use xlink:href="#DejaVuSans-53"/>
      <use xlink:href="#DejaVuSans-74" transform="translate(63.476562 0)"/>
      <use xlink:href="#DejaVuSans-61" transform="translate(102.685547 0)"/>
      <use xlink:href="#DejaVuSans-79" transform="translate(163.964844 0)"/>
     </g>
    </g>
    <g id="line2d_30">
     <path d="M 1058.494063 54.656563 
L 1068.494063 54.656563 
L 1078.494063 54.656563 
" style="fill: none; stroke: #008000; stroke-width: 1.5; stroke-linecap: square"/>
    </g>
    <g id="text_17">
     <!-- Switch -->
     <g transform="translate(1086.494063 58.156563) scale(0.1 -0.1)">
      <defs>
       <path id="DejaVuSans-77" d="M 269 3500 
L 844 3500 
L 1563 769 
L 2278 3500 
L 2956 3500 
L 3675 769 
L 4391 3500 
L 4966 3500 
L 4050 0 
L 3372 0 
L 2619 2869 
L 1863 0 
L 1184 0 
L 269 3500 
z
" transform="scale(0.015625)"/>
       <path id="DejaVuSans-63" d="M 3122 3366 
L 3122 2828 
Q 2878 2963 2633 3030 
Q 2388 3097 2138 3097 
Q 1578 3097 1268 2742 
Q 959 2388 959 1747 
Q 959 1106 1268 751 
Q 1578 397 2138 397 
Q 2388 397 2633 464 
Q 2878 531 3122 666 
L 3122 134 
Q 2881 22 2623 -34 
Q 2366 -91 2075 -91 
Q 1284 -91 818 406 
Q 353 903 353 1747 
Q 353 2603 823 3093 
Q 1294 3584 2113 3584 
Q 2378 3584 2631 3529 
Q 2884 3475 3122 3366 
z
" transform="scale(0.015625)"/>
       <path id="DejaVuSans-68" d="M 3513 2113 
L 3513 0 
L 2938 0 
L 2938 2094 
Q 2938 2591 2744 2837 
Q 2550 3084 2163 3084 
Q 1697 3084 1428 2787 
Q 1159 2491 1159 1978 
L 1159 0 
L 581 0 
L 581 4863 
L 1159 4863 
L 1159 2956 
Q 1366 3272 1645 3428 
Q 1925 3584 2291 3584 
Q 2894 3584 3203 3211 
Q 3513 2838 3513 2113 
z
" transform="scale(0.015625)"/>
      </defs>
      <use xlink:href="#DejaVuSans-53"/>
      <use xlink:href="#DejaVuSans-77" transform="translate(63.476562 0)"/>
      <use xlink:href="#DejaVuSans-69" transform="translate(145.263672 0)"/>
      <use xlink:href="#DejaVuSans-74" transform="translate(173.046875 0)"/>
      <use xlink:href="#DejaVuSans-63" transform="translate(212.255859 0)"/>
      <use xlink:href="#DejaVuSans-68" transform="translate(267.236328 0)"/>
     </g>
    </g>
   </g>
  </g>
 </g>
 <defs>
  <clipPath id="p4d5a346cf1">
   <rect x="50.87" y="26.88" width="1077.685" height="579.16"/>
  </clipPath>
 </defs>
</svg>
